PathFileType	4	(X/Y/Z)	D:\TRACE\v60_Jaco2_6-2-23\BothDRS_Motion1_7-v60.trc
DataRate	CameraRate	NumFrames	NumMarkers	Units	OrigDataRate	OrigDataStartFrame	OrigNumFrames
100.00	100.00	      14	9	mm	100.00	3751	      7500
Frame#	Time	front left toe			Front right toe			aft left toe			aft right toe			Arm			FL body			FR body			AL Body			AR Body			
		X1	Y1	Z1	X2	Y2	Z2	X3	Y3	Z3	X4	Y4	Z4	X5	Y5	Z5	X6	Y6	Z6	X7	Y7	Z7	X8	Y8	Z8	X9	Y9	Z9	

3751	37.500	-99.72577	25.75150	-227.83740	352.88098	56.64474	-261.15121	-16.57248	24.36016	370.20526	283.08481	4.28738	394.66159	189.89529	1118.32422	-600.10706	43.26418	584.96967	-375.58896	203.02577	583.07709	-381.55057	74.23586	542.88043	568.91431	234.51375	536.32727	565.18738	
3752	37.510	-99.86385	25.69271	-227.89050	353.73267	50.28516	-264.23282	-14.77316	18.00109	368.00751	282.61865	4.33116	394.51025	189.48662	1118.03735	-601.73608	43.79419	584.34747	-377.37540	203.71498	582.99841	-383.40103	76.35278	542.64886	567.46704	236.54942	536.37567	563.36682	
3753	37.520	-100.05580	25.61931	-227.90776	354.36591	44.12223	-267.49667	-12.96982	11.79991	365.50937	282.25403	4.34237	394.36887	188.85123	1117.95728	-603.73688	44.50064	584.27765	-378.87946	204.20163	582.88824	-385.03098	78.33601	542.25311	565.54041	234.28194	533.77350	556.95905	
3754	37.530	-100.45361	25.69147	-227.87914	354.75955	37.47625	-271.35455	-11.46887	6.04416	362.50143	282.17389	4.49074	394.15176	188.17574	1118.00378	-605.74963	44.16604	584.25446	-380.97009	204.33449	582.71295	-387.41525	80.73785	542.05084	563.91046	239.13120	537.00549	560.46460	
3755	37.540	-100.69839	25.93530	-227.50250	354.81400	30.70005	-275.11334	-11.94235	6.37767	359.54932	281.32574	4.59303	393.87048	187.48476	1118.04395	-608.04883	44.40973	584.16791	-383.00641	204.51314	582.87952	-389.86697	82.93417	542.22717	561.86102	241.40730	537.60565	557.88953	
3756	37.550	-101.21248	25.96891	-227.45416	354.29532	27.55677	-278.59378	-13.58634	4.71768	360.12790	281.08929	4.60417	393.31223	186.70692	1117.96472	-610.56360	44.41457	583.47278	-385.44827	204.64775	582.21515	-392.46149	85.44143	543.63092	559.20557	238.42528	536.49866	551.63416	
3757	37.560	-101.42696	25.65874	-227.54680	354.20264	25.10368	-277.96750	-13.67811	7.08427	360.97299	280.60260	4.94446	393.00659	185.79922	1118.25635	-614.19745	44.60251	583.25122	-387.35672	203.86115	581.76575	-394.88571	87.68777	545.51746	556.94830	240.01698	538.15582	549.45502	
3758	37.570	-101.42203	26.16726	-228.50859	353.97662	25.01344	-278.73703	-13.80604	7.96221	360.92615	280.37363	5.87646	392.25699	186.22392	1117.90918	-618.66486	44.35602	583.30389	-389.42807	203.89488	582.72662	-397.70972	90.16168	546.78778	554.86096	245.56671	539.50555	546.37415	
3759	37.580	-97.84014	29.90616	-231.02696	354.00952	23.40322	-279.90836	-12.81414	6.77937	359.51639	279.15881	9.45916	391.07944	185.61743	1116.91211	-623.11615	43.19460	584.33899	-391.72180	203.60855	583.14832	-400.09628	92.75204	548.28387	552.97473	248.00140	540.57788	543.55621	
3760	37.590	-92.91564	33.53214	-227.69412	353.82242	23.01681	-279.97827	-13.75905	7.89600	359.36774	276.85498	12.78748	395.42270	184.41933	1115.26831	-626.07959	43.24484	584.71857	-393.53888	202.81941	583.75708	-402.33084	94.78032	549.40009	550.60303	250.49106	541.93994	541.67169	
3761	37.600	-87.31757	37.91681	-224.52621	353.10901	22.73261	-280.31741	-14.15479	8.08929	359.63007	273.00348	21.09768	396.18005	183.12163	1114.54785	-628.62610	42.53965	585.12823	-395.46118	202.61736	583.89758	-404.84488	96.51864	551.02460	548.83472	252.14114	542.97314	539.80487	
3762	37.610	-86.15160	49.12984	-226.00797	352.33429	22.41648	-280.60632	-14.59108	8.11851	359.35617	272.71725	31.03309	394.20242	181.59625	1114.86279	-631.12000	42.15067	584.48138	-397.11523	202.37996	583.58337	-406.48117	97.89947	552.07678	547.10614	253.24376	544.14410	537.14832	
3763	37.620	-86.20309	58.15002	-226.62538	351.92496	22.18410	-280.76743	-14.90061	8.63014	359.41403	274.27887	44.49361	391.17993	179.90494	1115.43665	-632.81421	41.97968	583.69263	-398.20425	202.17546	582.91223	-408.23654	98.61575	553.09668	545.87042	254.08119	545.69617	536.22437	
3764	37.630	-88.12799	71.66471	-229.43169	351.35861	21.76925	-280.58069	-15.92677	8.94427	359.52509	279.94550	56.38799	386.45233	179.00397	1115.16125	-633.90997	42.11305	583.27734	-399.57706	201.49535	582.01324	-409.38757	99.37013	554.02063	544.37280	254.90927	546.32239	534.82477	
